<?xml version="1.0" standalone="no"?><!DOCTYPE svg PUBLIC "-//W3C//DTD SVG 1.1//EN" "http://www.w3.org/Graphics/SVG/1.1/DTD/svg11.dtd"><svg class="icon" width="200px" height="200.00px" viewBox="0 0 1024 1024" version="1.1" xmlns="http://www.w3.org/2000/svg"><path d="M1023.481749 89.251194A89.377612 89.377612 0 0 0 934.230555 0H89.251826A89.377612 89.377612 0 0 0 0.000632 89.251194v906.354727A28.191241 28.191241 0 0 0 28.318291 1023.986789h4.803889a28.633705 28.633705 0 0 0 18.962718-7.648296l98.669345-91.969184 98.226881 91.969184a28.064823 28.064823 0 0 0 18.962718 7.648296h10.239868a28.633705 28.633705 0 0 0 18.962718-7.648296l98.669345-91.969184 98.606135 92.032393a28.001614 28.001614 0 0 0 20.037272 7.585087H524.635839a28.570496 28.570496 0 0 0 18.962718-7.648296l98.669345-92.032393 98.606135 91.969184a28.696914 28.696914 0 0 0 19.341973 7.648296 26.421388 26.421388 0 0 0 20.226899-8.912477 27.938405 27.938405 0 0 0 7.648296-20.2269 28.570496 28.570496 0 0 0-8.912477-19.658018l-117.82169-110.046975a27.432733 27.432733 0 0 0-18.962718-7.648297 28.570496 28.570496 0 0 0-18.962719 7.648297L519.579114 961.915491l-103.726069-96.89949a27.432733 27.432733 0 0 0-18.962718-7.648297 28.633705 28.633705 0 0 0-18.962719 7.648297L273.695867 961.915491l-103.662861-96.836281a27.432733 27.432733 0 0 0-18.962718-7.648297 28.633705 28.633705 0 0 0-18.962718 7.648297L56.446324 935.494104V89.251194A32.868712 32.868712 0 0 1 89.251826 56.888155H934.230555a32.742294 32.742294 0 0 1 32.868711 32.363039v823.424439l0.442464 73.701765a28.191241 28.191241 0 0 0 48.228513 19.658018A28.760123 28.760123 0 0 0 1023.987421 986.061353z" fill="#ffffff" /><path d="M674.567732 404.537991A191.333828 191.333828 0 1 0 865.964769 595.871819 191.523455 191.523455 0 0 0 674.567732 404.537991z m66.495932 296.576914a17.319283 17.319283 0 0 1-24.525116 0l-68.64504-68.64504-0.6953-0.821718a17.192865 17.192865 0 0 1-5.941651-12.957857V495.748666a17.319283 17.319283 0 1 1 34.638565 0v115.735791l65.105333 65.105333a17.319283 17.319283 0 0 1 0 24.525115z" fill="#ffffff" /><path d="M673.177132 198.413243a30.087513 30.087513 0 0 0-28.25445-31.604531H158.718584a30.087513 30.087513 0 0 0-28.25445 31.604531 30.087513 30.087513 0 0 0 28.25445 31.60453H644.733055a30.087513 30.087513 0 0 0 28.444077-31.60453zM158.718584 322.366211a31.604531 31.604531 0 0 0 0 63.209062h307.196037a31.604531 31.604531 0 0 0 0-63.209062z" fill="#ffffff" /></svg>